<svg width="27" height="30" viewBox="0 0 27 30" fill="none" xmlns="http://www.w3.org/2000/svg">
<path fill-rule="evenodd" clip-rule="evenodd" d="M23.3397 2.55026H19.1277V0.441376H17.0217V2.55026H8.59783V0.441376H6.49185V2.55026H2.27989C1.72135 2.55026 1.18569 2.77244 0.790739 3.16793C0.395791 3.56342 0.173912 4.09982 0.173912 4.65913V25.7479C0.173912 26.3072 0.395791 26.8436 0.790739 27.2391C1.18569 27.6346 1.72135 27.8568 2.27989 27.8568H10.7038V25.7479H2.27989V4.65913H6.49185V6.76801H8.59783V4.65913H17.0217V6.76801H19.1277V4.65913H23.3397V13.0947H25.4457V4.65913C25.4457 4.09982 25.2238 3.56342 24.8288 3.16793C24.4339 2.77244 23.8982 2.55026 23.3397 2.55026ZM26 22.1698C25.8011 22.1698 25.6103 22.249 25.4697 22.3898C25.329 22.5307 25.25 22.7217 25.25 22.9209V27.1041C25.25 27.2236 25.2026 27.3383 25.1182 27.4228C25.0338 27.5073 24.9193 27.5547 24.8 27.5547H15.2C15.0806 27.5547 14.9662 27.5073 14.8818 27.4228C14.7974 27.3383 14.75 27.2236 14.75 27.1041V17.4909C14.75 17.3714 14.7974 17.2568 14.8818 17.1723C14.9662 17.0878 15.0806 17.0403 15.2 17.0403H22.3775C22.5764 17.0403 22.7672 16.9612 22.9078 16.8203C23.0485 16.6795 23.1275 16.4884 23.1275 16.2893C23.1275 16.0901 23.0485 15.899 22.9078 15.7582C22.7672 15.6173 22.5764 15.5382 22.3775 15.5382H15.2C14.6834 15.5402 14.1886 15.7466 13.8233 16.1123C13.4581 16.4781 13.252 16.9736 13.25 17.4909V27.1041C13.252 27.6214 13.4581 28.1169 13.8233 28.4827C14.1886 28.8485 14.6834 29.0548 15.2 29.0568H24.8C25.3166 29.0548 25.8114 28.8485 26.1767 28.4827C26.5419 28.1169 26.748 27.6214 26.75 27.1041V22.9209C26.75 22.7217 26.671 22.5307 26.5303 22.3898C26.3897 22.249 26.1989 22.1698 26 22.1698ZM18.5266 21.354C18.7158 21.351 18.8992 21.4197 19.04 21.5465L20.1725 22.7331L24.71 18.0316C24.7789 17.9606 24.8612 17.9039 24.952 17.8647C25.0428 17.8255 25.1405 17.8047 25.2394 17.8033C25.3383 17.8019 25.4365 17.82 25.5284 17.8566C25.6203 17.8932 25.7041 17.9476 25.775 18.0166C25.8459 18.0857 25.9025 18.168 25.9417 18.259C25.9808 18.3499 26.0017 18.4477 26.003 18.5467C26.0044 18.6458 25.9863 18.7441 25.9498 18.8361C25.9132 18.9282 25.8589 19.0121 25.79 19.0831L20.705 24.3403C20.6346 24.4122 20.5506 24.4692 20.4578 24.5079C20.3651 24.5466 20.2655 24.5662 20.165 24.5656C20.064 24.5652 19.964 24.5444 19.8713 24.5044C19.7785 24.4644 19.6947 24.406 19.625 24.3328L17.96 22.5829C17.8395 22.4367 17.7787 22.2503 17.7897 22.0611C17.8008 21.8719 17.8829 21.6938 18.0195 21.5627C18.1562 21.4315 18.3373 21.357 18.5266 21.354Z" fill="white"/>
</svg>
