<svg width="27" height="30" viewBox="0 0 27 30" fill="none" xmlns="http://www.w3.org/2000/svg">
<path fill-rule="evenodd" clip-rule="evenodd" d="M23.3397 2.54751H19.1277V0.438629H17.0217V2.54751H8.59783V0.438629H6.49185V2.54751H2.2799C1.72136 2.54751 1.18569 2.76969 0.790746 3.16518C0.395799 3.56068 0.17392 4.09708 0.17392 4.65639V25.7452C0.17392 26.3045 0.395799 26.8409 0.790746 27.2364C1.18569 27.6319 1.72136 27.8541 2.2799 27.8541H10.7038V25.7452H2.2799V4.65639H6.49185V6.76527H8.59783V4.65639H17.0217V6.76527H19.1277V4.65639H23.3397V13.0919H25.4457V4.65639C25.4457 4.09708 25.2238 3.56068 24.8288 3.16518C24.4339 2.76969 23.8982 2.54751 23.3397 2.54751ZM22.6667 16.6185H17.3333C15.1273 16.6185 13.3333 18.4149 13.3333 20.624V29.3026C13.3333 29.4796 13.4036 29.6494 13.5286 29.7746C13.6536 29.8998 13.8232 29.9702 14 29.9702H22.6667C24.8727 29.9702 26.6667 28.1737 26.6667 25.9646V20.624C26.6667 18.4149 24.8727 16.6185 22.6667 16.6185ZM25.3333 25.9646C25.3333 27.4373 24.1373 28.635 22.6667 28.635H14.6667V20.624C14.6667 19.1513 15.8627 17.9536 17.3333 17.9536H22.6667C24.1373 17.9536 25.3333 19.1513 25.3333 20.624V25.9646ZM16.6667 26.6247V25.2902L20.3533 21.6045L21.6853 22.9383L17.9993 26.6247H16.6667ZM20.9813 20.9743L22.3133 22.3095L23.33 21.2927L21.9967 19.9582L20.9813 20.9743Z" fill="white"/>
</svg>
