<svg width="32" height="31" viewBox="0 0 32 31" fill="none" xmlns="http://www.w3.org/2000/svg">
<path fill-rule="evenodd" clip-rule="evenodd" d="M19.1277 2.55026H23.3397C23.8982 2.55026 24.4339 2.77244 24.8288 3.16793C25.2238 3.56342 25.4457 4.09982 25.4457 4.65913V13.0947H23.3397V4.65913H19.1277V6.76801H17.0217V4.65913H8.59783V6.76801H6.49185V4.65913H2.27989V25.7479H10.7038V27.8568H2.27989C1.72135 27.8568 1.18569 27.6346 0.790739 27.2391C0.395791 26.8436 0.173912 26.3072 0.173912 25.7479V4.65913C0.173912 4.09982 0.395791 3.56342 0.790739 3.16793C1.18569 2.77244 1.72135 2.55026 2.27989 2.55026H6.49185V0.441376H8.59783V2.55026H17.0217V0.441376H19.1277V2.55026ZM30.163 25.4948H30.6685C30.9465 25.4948 31.1739 25.7036 31.1739 25.9588V26.8867C31.1739 27.1419 30.9465 27.3507 30.6685 27.3507H29.1522C29.1522 28.8875 27.7938 30.1344 26.1196 30.1344C24.4453 30.1344 23.0869 28.8875 23.0869 27.3507H19.0435C19.0435 28.8875 17.6851 30.1344 16.0109 30.1344C14.3366 30.1344 12.9783 28.8875 12.9783 27.3507V23.639H17.7799C17.9189 23.639 18.0326 23.5346 18.0326 23.4071V22.9431C18.0326 22.8155 17.9189 22.7111 17.7799 22.7111H11.2092C11.0702 22.7111 10.9565 22.6067 10.9565 22.4792V22.0152C10.9565 21.8876 11.0702 21.7832 11.2092 21.7832H18.7908C18.9297 21.7832 19.0435 21.6788 19.0435 21.5512V21.0873C19.0435 20.9597 18.9297 20.8553 18.7908 20.8553H12.2201C12.0811 20.8553 11.9674 20.7509 11.9674 20.6233V20.1594C11.9674 20.0318 12.0811 19.9274 12.2201 19.9274H19.8016C19.9406 19.9274 20.0543 19.823 20.0543 19.6954V19.2315C20.0543 19.1039 19.9406 18.9995 19.8016 18.9995H11.2092C11.0702 18.9995 10.9565 18.8951 10.9565 18.7675V18.3036C10.9565 18.176 11.0702 18.0716 11.2092 18.0716H12.9783V16.6797C12.9783 15.9113 13.6574 15.2879 14.4946 15.2879H22.5815C23.4186 15.2879 24.0978 15.9113 24.0978 16.6797V18.0716H25.4909C25.8921 18.0716 26.2775 18.2195 26.5618 18.4805L29.7176 21.3773C30.0019 21.6382 30.163 21.992 30.163 22.3603V25.4948ZM14.4946 27.3507C14.4946 28.1191 15.1737 28.7425 16.0109 28.7425C16.848 28.7425 17.5272 28.1191 17.5272 27.3507C17.5272 26.5822 16.848 25.9588 16.0109 25.9588C15.1737 25.9588 14.4946 26.5822 14.4946 27.3507ZM24.6033 27.3507C24.6033 28.1191 25.2824 28.7425 26.1196 28.7425C26.9567 28.7425 27.6359 28.1191 27.6359 27.3507C27.6359 26.5822 26.9567 25.9588 26.1196 25.9588C25.2824 25.9588 24.6033 26.5822 24.6033 27.3507ZM24.0978 22.7111H28.6467V22.3603L25.4909 19.4635H24.0978V22.7111Z" fill="white"/>
</svg>
